<?xml version="1.0" encoding="UTF-8"?>
<!DOCTYPE svg PUBLIC "-//W3C//DTD SVG 1.1//EN" "http://www.w3.org/Graphics/SVG/1.1/DTD/svg11.dtd">
<!-- Creator: CorelDRAW -->
<svg xmlns="http://www.w3.org/2000/svg" xml:space="preserve" width="2048px" height="2048px" style="shape-rendering:geometricPrecision; text-rendering:geometricPrecision; image-rendering:optimizeQuality; fill-rule:evenodd; clip-rule:evenodd"
viewBox="0 0 2048 2048"
 xmlns:xlink="http://www.w3.org/1999/xlink">
 <defs>
  <style type="text/css">
   <![CDATA[
    .fil2 {fill:none}
    .fil8 {fill:#00C853}
    .fil1 {fill:#1976D2}
    .fil9 {fill:#353E45}
    .fil4 {fill:#383F47}
    .fil3 {fill:#434A52}
    .fil6 {fill:#454C54}
    .fil7 {fill:#4FC3F7}
    .fil5 {fill:#515961}
    .fil0 {fill:#64B5F6}
    .fil10 {fill:#97E1FC}
    .fil11 {fill:#E53935}
    .fil12 {fill:#EF5350;fill-rule:nonzero}
   ]]>
  </style>
   <clipPath id="id0">
    <path d="M1024 0c565.541,0 1024,458.459 1024,1024 0,565.541 -458.459,1024 -1024,1024 -565.541,0 -1024,-458.459 -1024,-1024 0,-565.541 458.459,-1024 1024,-1024z"/>
   </clipPath>
 </defs>
 <g id="Layer_x0020_1">
  <metadata id="CorelCorpID_0Corel-Layer"/>
  <path class="fil0" d="M1024 0c565.541,0 1024,458.459 1024,1024 0,565.541 -458.459,1024 -1024,1024 -565.541,0 -1024,-458.459 -1024,-1024 0,-565.541 458.459,-1024 1024,-1024z"/>
  <g style="clip-path:url(#id0)">
   <g id="_308714488">
    <g>
     <polygon id="_3039047361" class="fil1" points="1576.37,627.274 2712.25,1763.16 2714.17,1765.73 2715.84,1768.47 2717.25,1771.39 2718.38,1774.44 2719.2,1777.63 2719.71,1780.93 2719.88,1784.32 2719.88,2393.22 2719.71,2396.61 2719.2,2399.91 2718.38,2403.1 2717.25,2406.16 2715.84,2409.07 2714.17,2411.82 2712.24,2414.38 2710.09,2416.75 2707.71,2418.91 2705.15,2420.84 2702.4,2422.51 2699.49,2423.92 2696.43,2425.05 2693.24,2425.87 2689.94,2426.38 2686.55,2426.55 2220.59,2426.55 1084.71,1290.67 1550.67,1290.67 1554.06,1290.5 1557.36,1289.99 1560.55,1289.16 1563.6,1288.04 1566.52,1286.63 1569.26,1284.95 1571.83,1283.03 1574.2,1280.87 1576.36,1278.5 1578.28,1275.93 1579.96,1273.18 1581.37,1270.27 1582.5,1267.22 1583.32,1264.03 1583.83,1260.73 1584,1257.34 1584,648.44 1583.83,645.047 1583.32,641.749 1582.5,638.561 1581.37,635.503 1579.96,632.592 1578.29,629.843 "/>
     <polygon id="_303905216" class="fil1" points="963.289,1290.67 2099.17,2426.55 1633.21,2426.55 1629.82,2426.38 1626.52,2425.87 1623.33,2425.05 1620.28,2423.92 1617.36,2422.51 1614.62,2420.84 1612.05,2418.92 476.167,1283.03 478.734,1284.96 481.483,1286.63 484.395,1288.04 487.453,1289.16 490.64,1289.99 493.937,1290.5 497.331,1290.67 "/>
     <polygon id="_303905648" class="fil1" points="1084.71,1290.67 2220.59,2426.55 2220.59,2548.91 1084.71,1413.02 "/>
     <polygon id="_303905408" class="fil1" points="1115.8,1432.89 2251.68,2568.78 2068.08,2568.78 932.199,1432.89 "/>
     <polygon id="_303905456" class="fil1" points="1115.8,1413.02 2251.68,2548.91 2251.68,2568.78 1115.8,1432.89 "/>
    </g>
    <path id="_308714608" class="fil1" d="M1550.67 615.107c18.3319,0 33.3319,15.0154 33.3319,33.3331l0 608.897c0,18.3189 -15.0154,33.3331 -33.3319,33.3331l-465.957 0 0 122.355 31.089 0 0 19.8685 -183.603 0 0 -19.8685 31.0902 0 0 -122.355 -465.958 0c-18.3177,0 -33.3319,-14.9988 -33.3319,-33.3331l0 -608.897c0,-18.3343 14.9988,-33.3331 33.3319,-33.3331l1053.34 0z"/>
   </g>
  </g>
  <path class="fil2" d="M1024 0c565.541,0 1024,458.459 1024,1024 0,565.541 -458.459,1024 -1024,1024 -565.541,0 -1024,-458.459 -1024,-1024 0,-565.541 458.459,-1024 1024,-1024z"/>
  <rect class="fil3" x="963.288" y="1276.89" width="121.424" height="142.225"/>
  <rect class="fil4" x="932.199" y="1413.02" width="183.603" height="19.869"/>
  <path class="fil5" d="M497.331 615.107l1053.34 0c18.3343,0 33.3331,15.0154 33.3331,33.3331l0 608.897c0,18.3177 -15.0154,33.3331 -33.3331,33.3331l-1053.34 0c-18.3177,0 -33.3319,-14.9988 -33.3319,-33.3331l0 -608.897c0,-18.3343 14.9988,-33.3331 33.3319,-33.3331z"/>
  <circle class="fil6" cx="968.655" cy="1246.13" r="16.1094"/>
  <circle class="fil7" cx="968.655" cy="1246.13" r="11.7278"/>
  <circle class="fil6" cx="1024" cy="1246.13" r="16.1094"/>
  <circle class="fil8" cx="1024" cy="1246.13" r="11.7278"/>
  <circle class="fil9" cx="1079.34" cy="1246.13" r="16.1094"/>
  <path class="fil10" d="M530.609 648.44l986.781 0c17.1744,0 31.226,12.6945 31.226,28.1788l0 501.157c0,15.4843 -14.0669,28.1788 -31.226,28.1788l-986.781 0c-17.1591,0 -31.2272,-12.6803 -31.2272,-28.1788l0 -501.157c0,-15.4996 14.0516,-28.1788 31.2272,-28.1788z"/>
  <path class="fil11" d="M731.53 971.962l133.6 35.7969c11.8984,-17.3563 31.8709,-28.7445 54.5032,-28.7445 7.86733,0 15.4134,1.37835 22.4091,3.90355l93.3709 -161.724c-10.4232,-11.6752 -16.761,-27.0756 -16.761,-43.9583 0,-36.4713 29.5654,-66.0367 66.0367,-66.0367 36.4713,0 66.0378,29.5654 66.0378,66.0367 0,36.4713 -29.5666,66.0378 -66.0378,66.0378 -1.98425,0 -3.94607,-0.0921261 -5.88544,-0.263386l-99.8646 172.969c4.30985,8.77324 6.73229,18.639 6.73229,29.0729 0,36.4701 -29.5654,66.0367 -66.0378,66.0367 -33.0107,0 -60.3626,-24.2232 -65.256,-55.8638l-135.195 -36.2256c-12.0236,16.3335 -31.3796,26.9339 -53.2158,26.9339 -36.4701,0 -66.0367,-29.5666 -66.0367,-66.0367 0,-36.4725 29.5666,-66.0378 66.0367,-66.0378 33.7866,0 61.643,25.3736 65.563,58.1032z"/>
  <polygon class="fil12" points="1187.33,749.833 1467.33,749.833 1467.33,788.014 1187.33,788.014 "/>
  <polygon class="fil12" points="1187.33,826.196 1467.33,826.196 1467.33,864.379 1187.33,864.379 "/>
  <polygon class="fil12" points="1187.33,902.56 1467.33,902.56 1467.33,940.742 1187.33,940.742 "/>
  <polygon class="fil12" points="1187.33,978.923 1467.33,978.923 1467.33,1017.1 1187.33,1017.1 "/>
  <polygon class="fil12" points="1187.33,1055.29 1467.33,1055.29 1467.33,1093.47 1187.33,1093.47 "/>
 </g>
</svg>
